<mxfile host="app.diagrams.net" agent="Mozilla/5.0 (Windows NT 10.0; Win64; x64) AppleWebKit/537.36 (KHTML, like Gecko) Chrome/132.0.0.0 Safari/537.36" version="26.0.11">
  <diagram name="Page-1" id="2YBvvXClWsGukQMizWep">
    <mxGraphModel dx="1481" dy="815" grid="1" gridSize="10" guides="1" tooltips="1" connect="1" arrows="1" fold="1" page="1" pageScale="1" pageWidth="850" pageHeight="1100" math="0" shadow="0">
      <root>
        <mxCell id="0" />
        <mxCell id="1" parent="0" />
        <mxCell id="F4sd7CnOWZ5qCEoItEzf-10" value="UI" style="rounded=0;whiteSpace=wrap;html=1;" vertex="1" parent="1">
          <mxGeometry x="320" y="40" width="80" height="40" as="geometry" />
        </mxCell>
        <mxCell id="F4sd7CnOWZ5qCEoItEzf-11" value="Server" style="rounded=0;whiteSpace=wrap;html=1;" vertex="1" parent="1">
          <mxGeometry x="480" y="40" width="80" height="40" as="geometry" />
        </mxCell>
        <mxCell id="F4sd7CnOWZ5qCEoItEzf-14" value="" style="endArrow=none;dashed=1;html=1;rounded=0;exitX=0.5;exitY=1;exitDx=0;exitDy=0;dashPattern=8 8;" edge="1" parent="1" source="F4sd7CnOWZ5qCEoItEzf-101">
          <mxGeometry width="50" height="50" relative="1" as="geometry">
            <mxPoint x="359.71000000000004" y="80" as="sourcePoint" />
            <mxPoint x="360" y="680" as="targetPoint" />
          </mxGeometry>
        </mxCell>
        <mxCell id="F4sd7CnOWZ5qCEoItEzf-15" value="" style="endArrow=none;dashed=1;html=1;rounded=0;exitX=0.5;exitY=1;exitDx=0;exitDy=0;dashPattern=8 8;" edge="1" parent="1" source="F4sd7CnOWZ5qCEoItEzf-103">
          <mxGeometry width="50" height="50" relative="1" as="geometry">
            <mxPoint x="519.71" y="80" as="sourcePoint" />
            <mxPoint x="520" y="680" as="targetPoint" />
          </mxGeometry>
        </mxCell>
        <mxCell id="F4sd7CnOWZ5qCEoItEzf-16" value="" style="endArrow=none;dashed=1;html=1;rounded=0;exitX=0.5;exitY=1;exitDx=0;exitDy=0;dashPattern=8 8;" edge="1" parent="1">
          <mxGeometry width="50" height="50" relative="1" as="geometry">
            <mxPoint x="199.66000000000003" y="80" as="sourcePoint" />
            <mxPoint x="200" y="680" as="targetPoint" />
          </mxGeometry>
        </mxCell>
        <mxCell id="F4sd7CnOWZ5qCEoItEzf-7" value="&lt;span style=&quot;background-color: light-dark(#ffffff, var(--ge-dark-color, #121212));&quot;&gt;User&lt;/span&gt;" style="shape=umlActor;verticalLabelPosition=bottom;verticalAlign=top;html=1;outlineConnect=0;" vertex="1" parent="1">
          <mxGeometry x="185" y="20" width="30" height="60" as="geometry" />
        </mxCell>
        <mxCell id="F4sd7CnOWZ5qCEoItEzf-27" value="Enter Credentials" style="endArrow=classic;html=1;rounded=0;entryX=-0.052;entryY=0.018;entryDx=0;entryDy=0;entryPerimeter=0;" edge="1" parent="1" target="F4sd7CnOWZ5qCEoItEzf-101">
          <mxGeometry width="50" height="50" relative="1" as="geometry">
            <mxPoint x="200" y="120" as="sourcePoint" />
            <mxPoint x="360" y="120" as="targetPoint" />
          </mxGeometry>
        </mxCell>
        <mxCell id="F4sd7CnOWZ5qCEoItEzf-28" value="Validate Credentials" style="endArrow=classic;html=1;rounded=0;exitX=1;exitY=0.056;exitDx=0;exitDy=0;exitPerimeter=0;" edge="1" parent="1" source="F4sd7CnOWZ5qCEoItEzf-101">
          <mxGeometry width="50" height="50" relative="1" as="geometry">
            <mxPoint x="380" y="140" as="sourcePoint" />
            <mxPoint x="510" y="140" as="targetPoint" />
          </mxGeometry>
        </mxCell>
        <mxCell id="F4sd7CnOWZ5qCEoItEzf-34" value="Database" style="rounded=0;whiteSpace=wrap;html=1;" vertex="1" parent="1">
          <mxGeometry x="640" y="40" width="80" height="40" as="geometry" />
        </mxCell>
        <mxCell id="F4sd7CnOWZ5qCEoItEzf-35" value="" style="endArrow=none;dashed=1;html=1;rounded=0;exitX=0.5;exitY=1;exitDx=0;exitDy=0;dashPattern=8 8;" edge="1" parent="1" source="F4sd7CnOWZ5qCEoItEzf-105">
          <mxGeometry width="50" height="50" relative="1" as="geometry">
            <mxPoint x="679.71" y="80" as="sourcePoint" />
            <mxPoint x="680" y="680" as="targetPoint" />
          </mxGeometry>
        </mxCell>
        <mxCell id="F4sd7CnOWZ5qCEoItEzf-36" value="Check User" style="endArrow=classic;html=1;rounded=0;" edge="1" parent="1">
          <mxGeometry width="50" height="50" relative="1" as="geometry">
            <mxPoint x="530" y="160" as="sourcePoint" />
            <mxPoint x="670" y="160" as="targetPoint" />
          </mxGeometry>
        </mxCell>
        <mxCell id="F4sd7CnOWZ5qCEoItEzf-38" value="Valid User" style="endArrow=none;html=1;rounded=0;startArrow=block;startFill=1;dashed=1;dashPattern=8 8;" edge="1" parent="1">
          <mxGeometry width="50" height="50" relative="1" as="geometry">
            <mxPoint x="530" y="180" as="sourcePoint" />
            <mxPoint x="670" y="180" as="targetPoint" />
          </mxGeometry>
        </mxCell>
        <mxCell id="F4sd7CnOWZ5qCEoItEzf-47" value="Credentials Validated" style="endArrow=none;html=1;rounded=0;startArrow=block;startFill=1;dashed=1;dashPattern=8 8;" edge="1" parent="1">
          <mxGeometry width="50" height="50" relative="1" as="geometry">
            <mxPoint x="370" y="240" as="sourcePoint" />
            <mxPoint x="510" y="240" as="targetPoint" />
          </mxGeometry>
        </mxCell>
        <mxCell id="F4sd7CnOWZ5qCEoItEzf-49" value="Request OTP" style="endArrow=none;html=1;rounded=0;startArrow=block;startFill=1;" edge="1" parent="1">
          <mxGeometry width="50" height="50" relative="1" as="geometry">
            <mxPoint x="200" y="260" as="sourcePoint" />
            <mxPoint x="350" y="260" as="targetPoint" />
          </mxGeometry>
        </mxCell>
        <mxCell id="F4sd7CnOWZ5qCEoItEzf-51" value="Enter OTP" style="endArrow=none;html=1;rounded=0;startArrow=block;startFill=1;dashed=1;dashPattern=8 8;" edge="1" parent="1">
          <mxGeometry width="50" height="50" relative="1" as="geometry">
            <mxPoint x="350" y="390" as="sourcePoint" />
            <mxPoint x="200" y="390" as="targetPoint" />
            <mxPoint as="offset" />
          </mxGeometry>
        </mxCell>
        <mxCell id="F4sd7CnOWZ5qCEoItEzf-52" value="Save OTP" style="endArrow=classic;html=1;rounded=0;" edge="1" parent="1">
          <mxGeometry width="50" height="50" relative="1" as="geometry">
            <mxPoint x="530" y="200" as="sourcePoint" />
            <mxPoint x="670" y="200" as="targetPoint" />
          </mxGeometry>
        </mxCell>
        <mxCell id="F4sd7CnOWZ5qCEoItEzf-54" value="Verify OTP" style="endArrow=none;html=1;rounded=0;startArrow=block;startFill=1;" edge="1" parent="1">
          <mxGeometry width="50" height="50" relative="1" as="geometry">
            <mxPoint x="510" y="410" as="sourcePoint" />
            <mxPoint x="370" y="410" as="targetPoint" />
          </mxGeometry>
        </mxCell>
        <mxCell id="F4sd7CnOWZ5qCEoItEzf-55" value="Check OTP" style="endArrow=none;html=1;rounded=0;startArrow=block;startFill=1;" edge="1" parent="1">
          <mxGeometry width="50" height="50" relative="1" as="geometry">
            <mxPoint x="670" y="430" as="sourcePoint" />
            <mxPoint x="530" y="430" as="targetPoint" />
          </mxGeometry>
        </mxCell>
        <mxCell id="F4sd7CnOWZ5qCEoItEzf-56" value="Valid OTP" style="endArrow=none;html=1;rounded=0;startArrow=block;startFill=1;dashed=1;dashPattern=8 8;" edge="1" parent="1">
          <mxGeometry width="50" height="50" relative="1" as="geometry">
            <mxPoint x="530" y="450" as="sourcePoint" />
            <mxPoint x="670" y="450" as="targetPoint" />
          </mxGeometry>
        </mxCell>
        <mxCell id="F4sd7CnOWZ5qCEoItEzf-58" value="Send JWT" style="endArrow=none;html=1;rounded=0;startArrow=block;startFill=1;dashed=1;dashPattern=8 8;" edge="1" parent="1">
          <mxGeometry width="50" height="50" relative="1" as="geometry">
            <mxPoint x="370" y="470" as="sourcePoint" />
            <mxPoint x="510" y="470" as="targetPoint" />
          </mxGeometry>
        </mxCell>
        <mxCell id="F4sd7CnOWZ5qCEoItEzf-59" value="Set Session Cookie" style="endArrow=none;html=1;rounded=0;startArrow=block;startFill=1;dashed=1;dashPattern=8 8;" edge="1" parent="1">
          <mxGeometry width="50" height="50" relative="1" as="geometry">
            <mxPoint x="200" y="490" as="sourcePoint" />
            <mxPoint x="350" y="490" as="targetPoint" />
          </mxGeometry>
        </mxCell>
        <mxCell id="F4sd7CnOWZ5qCEoItEzf-77" value="" style="group" vertex="1" connectable="0" parent="1">
          <mxGeometry x="110" y="170" width="610" height="510" as="geometry" />
        </mxCell>
        <mxCell id="F4sd7CnOWZ5qCEoItEzf-78" value="Alternative" style="shape=umlFrame;whiteSpace=wrap;html=1;pointerEvents=0;width=80;height=20;" vertex="1" parent="F4sd7CnOWZ5qCEoItEzf-77">
          <mxGeometry width="610" height="200" as="geometry" />
        </mxCell>
        <mxCell id="F4sd7CnOWZ5qCEoItEzf-79" value="[ if user is valid ]" style="text;html=1;align=center;verticalAlign=middle;whiteSpace=wrap;rounded=0;" vertex="1" parent="F4sd7CnOWZ5qCEoItEzf-77">
          <mxGeometry y="19.05" width="80" height="76.19" as="geometry" />
        </mxCell>
        <mxCell id="F4sd7CnOWZ5qCEoItEzf-80" value="[ else ]" style="text;html=1;align=center;verticalAlign=middle;whiteSpace=wrap;rounded=0;" vertex="1" parent="F4sd7CnOWZ5qCEoItEzf-77">
          <mxGeometry y="104.76" width="80" height="95.24" as="geometry" />
        </mxCell>
        <mxCell id="F4sd7CnOWZ5qCEoItEzf-81" value="" style="endArrow=none;html=1;rounded=0;entryX=0.998;entryY=0.502;entryDx=0;entryDy=0;entryPerimeter=0;exitX=-0.001;exitY=0.497;exitDx=0;exitDy=0;exitPerimeter=0;dashed=1;dashPattern=8 8;" edge="1" parent="F4sd7CnOWZ5qCEoItEzf-77" source="F4sd7CnOWZ5qCEoItEzf-78" target="F4sd7CnOWZ5qCEoItEzf-78">
          <mxGeometry width="50" height="50" relative="1" as="geometry">
            <mxPoint x="372.85714285714283" y="36.36363636363637" as="sourcePoint" />
            <mxPoint x="424.6428571428572" y="-9.090909090909092" as="targetPoint" />
          </mxGeometry>
        </mxCell>
        <mxCell id="F4sd7CnOWZ5qCEoItEzf-83" value="Invalid User" style="endArrow=none;html=1;rounded=0;startArrow=block;startFill=1;dashed=1;dashPattern=8 8;" edge="1" parent="F4sd7CnOWZ5qCEoItEzf-77">
          <mxGeometry width="50" height="50" relative="1" as="geometry">
            <mxPoint x="420" y="120" as="sourcePoint" />
            <mxPoint x="560" y="120" as="targetPoint" />
          </mxGeometry>
        </mxCell>
        <mxCell id="F4sd7CnOWZ5qCEoItEzf-84" value="Invalid Credentials" style="endArrow=none;html=1;rounded=0;startArrow=block;startFill=1;dashed=1;dashPattern=8 8;" edge="1" parent="F4sd7CnOWZ5qCEoItEzf-77">
          <mxGeometry width="50" height="50" relative="1" as="geometry">
            <mxPoint x="260" y="140" as="sourcePoint" />
            <mxPoint x="400" y="140" as="targetPoint" />
          </mxGeometry>
        </mxCell>
        <mxCell id="F4sd7CnOWZ5qCEoItEzf-85" value="Show Error" style="endArrow=none;html=1;rounded=0;startArrow=block;startFill=1;" edge="1" parent="F4sd7CnOWZ5qCEoItEzf-77">
          <mxGeometry width="50" height="50" relative="1" as="geometry">
            <mxPoint x="90" y="160" as="sourcePoint" />
            <mxPoint x="240" y="160" as="targetPoint" />
          </mxGeometry>
        </mxCell>
        <mxCell id="F4sd7CnOWZ5qCEoItEzf-88" value="" style="group" vertex="1" connectable="0" parent="1">
          <mxGeometry x="110" y="440" width="610" height="210" as="geometry" />
        </mxCell>
        <mxCell id="F4sd7CnOWZ5qCEoItEzf-89" value="Alternative" style="shape=umlFrame;whiteSpace=wrap;html=1;pointerEvents=0;width=80;height=20;" vertex="1" parent="F4sd7CnOWZ5qCEoItEzf-88">
          <mxGeometry width="610" height="200" as="geometry" />
        </mxCell>
        <mxCell id="F4sd7CnOWZ5qCEoItEzf-90" value="[ if OTP is verified ]" style="text;html=1;align=center;verticalAlign=middle;whiteSpace=wrap;rounded=0;" vertex="1" parent="F4sd7CnOWZ5qCEoItEzf-88">
          <mxGeometry y="19.05" width="82.71186440677965" height="76.19" as="geometry" />
        </mxCell>
        <mxCell id="F4sd7CnOWZ5qCEoItEzf-91" value="[ else ]" style="text;html=1;align=center;verticalAlign=middle;whiteSpace=wrap;rounded=0;" vertex="1" parent="F4sd7CnOWZ5qCEoItEzf-88">
          <mxGeometry y="104.76" width="82.71186440677965" height="95.24" as="geometry" />
        </mxCell>
        <mxCell id="F4sd7CnOWZ5qCEoItEzf-92" value="" style="endArrow=none;html=1;rounded=0;entryX=0.998;entryY=0.502;entryDx=0;entryDy=0;entryPerimeter=0;exitX=-0.001;exitY=0.497;exitDx=0;exitDy=0;exitPerimeter=0;dashed=1;dashPattern=8 8;" edge="1" parent="F4sd7CnOWZ5qCEoItEzf-88" source="F4sd7CnOWZ5qCEoItEzf-89" target="F4sd7CnOWZ5qCEoItEzf-89">
          <mxGeometry width="50" height="50" relative="1" as="geometry">
            <mxPoint x="385.49636803874085" y="36.36363636363637" as="sourcePoint" />
            <mxPoint x="439.0375302663439" y="-9.090909090909092" as="targetPoint" />
          </mxGeometry>
        </mxCell>
        <mxCell id="F4sd7CnOWZ5qCEoItEzf-93" value="Invalid OTP" style="endArrow=none;html=1;rounded=0;startArrow=block;startFill=1;dashed=1;dashPattern=8 8;" edge="1" parent="F4sd7CnOWZ5qCEoItEzf-88">
          <mxGeometry width="50" height="50" relative="1" as="geometry">
            <mxPoint x="420" y="120" as="sourcePoint" />
            <mxPoint x="560" y="120" as="targetPoint" />
          </mxGeometry>
        </mxCell>
        <mxCell id="F4sd7CnOWZ5qCEoItEzf-94" value="Invalid Credentials" style="endArrow=none;html=1;rounded=0;startArrow=block;startFill=1;dashed=1;dashPattern=8 8;" edge="1" parent="F4sd7CnOWZ5qCEoItEzf-88">
          <mxGeometry width="50" height="50" relative="1" as="geometry">
            <mxPoint x="260" y="140" as="sourcePoint" />
            <mxPoint x="400" y="140" as="targetPoint" />
          </mxGeometry>
        </mxCell>
        <mxCell id="F4sd7CnOWZ5qCEoItEzf-95" value="Show Error" style="endArrow=none;html=1;rounded=0;startArrow=block;startFill=1;" edge="1" parent="F4sd7CnOWZ5qCEoItEzf-88">
          <mxGeometry width="50" height="50" relative="1" as="geometry">
            <mxPoint x="93.05084745762711" y="160" as="sourcePoint" />
            <mxPoint x="240" y="160" as="targetPoint" />
          </mxGeometry>
        </mxCell>
        <mxCell id="F4sd7CnOWZ5qCEoItEzf-102" value="" style="endArrow=none;dashed=1;html=1;rounded=0;exitX=0.5;exitY=1;exitDx=0;exitDy=0;dashPattern=8 8;" edge="1" parent="1" target="F4sd7CnOWZ5qCEoItEzf-101">
          <mxGeometry width="50" height="50" relative="1" as="geometry">
            <mxPoint x="359.71000000000004" y="80" as="sourcePoint" />
            <mxPoint x="359.71000000000004" y="880" as="targetPoint" />
          </mxGeometry>
        </mxCell>
        <mxCell id="F4sd7CnOWZ5qCEoItEzf-101" value="" style="rounded=0;whiteSpace=wrap;html=1;" vertex="1" parent="1">
          <mxGeometry x="350" y="110" width="20" height="540" as="geometry" />
        </mxCell>
        <mxCell id="F4sd7CnOWZ5qCEoItEzf-45" value="Send OTP" style="endArrow=classic;html=1;rounded=0;" edge="1" parent="1">
          <mxGeometry width="50" height="50" relative="1" as="geometry">
            <mxPoint x="520" y="220" as="sourcePoint" />
            <mxPoint x="200" y="220" as="targetPoint" />
          </mxGeometry>
        </mxCell>
        <mxCell id="F4sd7CnOWZ5qCEoItEzf-104" value="" style="endArrow=none;dashed=1;html=1;rounded=0;exitX=0.5;exitY=1;exitDx=0;exitDy=0;dashPattern=8 8;" edge="1" parent="1" target="F4sd7CnOWZ5qCEoItEzf-103">
          <mxGeometry width="50" height="50" relative="1" as="geometry">
            <mxPoint x="519.71" y="80" as="sourcePoint" />
            <mxPoint x="520" y="680" as="targetPoint" />
          </mxGeometry>
        </mxCell>
        <mxCell id="F4sd7CnOWZ5qCEoItEzf-103" value="" style="rounded=0;whiteSpace=wrap;html=1;" vertex="1" parent="1">
          <mxGeometry x="510" y="130" width="20" height="520" as="geometry" />
        </mxCell>
        <mxCell id="F4sd7CnOWZ5qCEoItEzf-106" value="" style="endArrow=none;dashed=1;html=1;rounded=0;exitX=0.5;exitY=1;exitDx=0;exitDy=0;dashPattern=8 8;" edge="1" parent="1" target="F4sd7CnOWZ5qCEoItEzf-105">
          <mxGeometry width="50" height="50" relative="1" as="geometry">
            <mxPoint x="679.71" y="80" as="sourcePoint" />
            <mxPoint x="680" y="680" as="targetPoint" />
          </mxGeometry>
        </mxCell>
        <mxCell id="F4sd7CnOWZ5qCEoItEzf-105" value="" style="rounded=0;whiteSpace=wrap;html=1;" vertex="1" parent="1">
          <mxGeometry x="670" y="150" width="20" height="500" as="geometry" />
        </mxCell>
      </root>
    </mxGraphModel>
  </diagram>
</mxfile>
